<svg width="50" height="50" viewBox="0 0 50 50" fill="none" xmlns="http://www.w3.org/2000/svg">
<rect width="50" height="50" rx="4" fill="#87F9BB"/>
<path d="M34.8391 11.3721C33.7352 10.2725 31.8102 10.2769 30.715 11.3794L28.1133 13.9912L24.8962 17.2083H18.2083C17.9091 17.2081 17.6171 17.3001 17.3721 17.4718C17.127 17.6435 16.9409 17.8866 16.8389 18.1679L11.0056 34.2096C10.8116 34.7419 10.9444 35.3383 11.3439 35.7394L14.2606 38.656C14.4567 38.8526 14.7049 38.9889 14.976 39.0489C15.2471 39.1088 15.5297 39.0899 15.7904 38.9944L31.8321 33.161C32.1134 33.0591 32.3564 32.8729 32.5281 32.6279C32.6998 32.3829 32.7919 32.0909 32.7916 31.7917V25.1037L36.0102 21.8852V21.8837H36.0117L38.625 19.2631C39.1762 18.7119 39.4796 17.9783 39.4781 17.1996C39.4781 16.4194 39.1733 15.6858 38.6206 15.136L34.8391 11.3721ZM30.3023 23.4689C30.1666 23.6041 30.059 23.7648 29.9856 23.9418C29.9123 24.1187 29.8747 24.3084 29.875 24.5V30.7708L16.3869 35.6752L23.1987 28.8633C23.2366 28.8648 23.2746 28.875 23.3125 28.875C23.7451 28.875 24.1681 28.7467 24.5278 28.5063C24.8875 28.266 25.1679 27.9243 25.3335 27.5246C25.499 27.1249 25.5424 26.6851 25.458 26.2607C25.3735 25.8364 25.1652 25.4466 24.8593 25.1407C24.5534 24.8348 24.1636 24.6264 23.7392 24.542C23.3149 24.4576 22.8751 24.5009 22.4754 24.6665C22.0756 24.8321 21.734 25.1124 21.4936 25.4722C21.2533 25.8319 21.125 26.2548 21.125 26.6875C21.125 26.7254 21.1352 26.7633 21.1366 26.8012L14.3248 33.6131L19.2291 20.125H25.5C25.8879 20.125 26.2583 19.9719 26.531 19.6977L29.1458 17.0829L32.9171 20.8542L30.3023 23.4689ZM34.9777 18.7906L31.2064 15.0194L32.78 13.4385L36.5614 17.2025L34.9777 18.7906Z" fill="white"/>
</svg>
