<svg width="50" height="50" viewBox="0 0 50 50" fill="none" xmlns="http://www.w3.org/2000/svg">
<rect width="50" height="50" rx="4" fill="#98AFFF"/>
<path d="M17.7552 31.4723L19.5782 29.1944L13.7098 24.5L19.5782 19.8057L17.7552 17.5278L10.4636 23.3611C10.2927 23.4977 10.1548 23.671 10.06 23.8682C9.96523 24.0653 9.91602 24.2813 9.91602 24.5C9.91602 24.7188 9.96523 24.9348 10.06 25.1319C10.1548 25.3291 10.2927 25.5024 10.4636 25.639L17.7552 31.4723ZM31.2448 17.5278L29.4219 19.8057L35.2902 24.5L29.4219 29.1944L31.2448 31.4723L38.5365 25.639C38.7073 25.5024 38.8453 25.3291 38.9401 25.1319C39.0348 24.9348 39.0841 24.7188 39.0841 24.5C39.0841 24.2813 39.0348 24.0653 38.9401 23.8682C38.8453 23.671 38.7073 23.4977 38.5365 23.3611L31.2448 17.5278ZM28.84 11.69L23.0067 37.94L20.1586 37.3071L25.9919 11.0571L28.84 11.69Z" fill="white"/>
</svg>
