<svg width="50" height="50" viewBox="0 0 50 50" fill="none" xmlns="http://www.w3.org/2000/svg">
<rect width="50" height="50" rx="4" fill="#70E9F4"/>
<path d="M15.75 39.0834H37.625V36.1667H15.7675C15.0938 36.1492 14.2917 35.8823 14.2917 34.7084C14.2917 33.5344 15.0938 33.2675 15.7675 33.25H37.625V12.8334C37.625 11.2248 36.3169 9.91669 34.7083 9.91669H15.75C13.9913 9.91669 11.375 11.0819 11.375 14.2917V34.7084C11.375 37.9181 13.9913 39.0834 15.75 39.0834ZM14.2917 18.6667V14.2917C14.2917 13.1177 15.0938 12.8509 15.75 12.8334H34.7083V30.3334H14.2917V18.6667Z" fill="white"/>
<path d="M18.6667 15.75H31.7917V18.6667H18.6667V15.75Z" fill="white"/>
</svg>
