<svg width="570" height="316" viewBox="0 0 570 316" fill="none" xmlns="http://www.w3.org/2000/svg">
<g clip-path="url(#clip0_179_291)">
<path d="M149.45 98.9907C167.48 98.9907 182.095 84.3826 182.095 66.3626C182.095 48.3425 167.48 33.7344 149.45 33.7344C131.421 33.7344 116.806 48.3425 116.806 66.3626C116.806 84.3826 131.421 98.9907 149.45 98.9907Z" fill="#FF6584"/>
<path d="M251.821 166.91H91.6753C91.4748 166.913 91.2745 166.897 91.0769 166.863L166.818 35.7349C167.281 34.9182 167.951 34.2389 168.762 33.7662C169.573 33.2935 170.495 33.0444 171.434 33.0444C172.373 33.0444 173.295 33.2935 174.106 33.7662C174.917 34.2389 175.587 34.9182 176.05 35.7349L226.882 123.732L229.317 127.943L251.821 166.91Z" fill="#3F3D56"/>
<path opacity="0.2" d="M251.821 166.91H197.143L223.984 127.942L225.916 125.136L226.882 123.732L229.317 127.942L251.821 166.91Z" fill="black"/>
<path d="M340.989 166.91H202.476L229.317 127.943L231.249 125.136L266.225 74.3532C268.518 71.025 274.034 70.8177 276.73 73.7255C276.911 73.9238 277.08 74.1335 277.234 74.3532L340.989 166.91Z" fill="#3F3D56"/>
<path d="M381.648 145.338C387.081 145.338 391.485 140.936 391.485 135.506C391.485 130.076 387.081 125.674 381.648 125.674C376.215 125.674 371.811 130.076 371.811 135.506C371.811 140.936 376.215 145.338 381.648 145.338Z" fill="#6C63FF"/>
<path d="M382.596 165.121H380.582L381.5 134.026L382.596 165.121Z" fill="#3F3D56"/>
<path d="M381.677 139.919L383.841 136.928L381.648 140.659L381.411 140.245L381.677 139.919Z" fill="#3F3D56"/>
<path d="M381.441 142.939L379.277 139.949L381.47 143.68L381.707 143.265L381.441 142.939Z" fill="#3F3D56"/>
<path d="M471.884 145.338C477.316 145.338 481.721 140.936 481.721 135.506C481.721 130.076 477.316 125.674 471.884 125.674C466.451 125.674 462.047 130.076 462.047 135.506C462.047 140.936 466.451 145.338 471.884 145.338Z" fill="#6C63FF"/>
<path d="M472.831 165.121H470.817L471.736 134.026L472.831 165.121Z" fill="#3F3D56"/>
<path d="M471.913 139.919L474.076 136.928L471.884 140.659L471.646 140.245L471.913 139.919Z" fill="#3F3D56"/>
<path d="M471.677 142.939L469.513 139.949L471.706 143.68L471.943 143.265L471.677 142.939Z" fill="#3F3D56"/>
<path d="M410.144 135.904C418.168 135.904 424.672 129.402 424.672 121.383C424.672 113.363 418.168 106.862 410.144 106.862C402.12 106.862 395.615 113.363 395.615 121.383C395.615 129.402 402.12 135.904 410.144 135.904Z" fill="#6C63FF"/>
<path d="M411.544 165.121H408.569L409.925 119.196L411.544 165.121Z" fill="#3F3D56"/>
<path d="M410.188 127.899L413.382 123.482L410.144 128.993L409.794 128.381L410.188 127.899Z" fill="#3F3D56"/>
<path d="M409.837 132.361L406.643 127.944L409.881 133.454L410.231 132.842L409.837 132.361Z" fill="#3F3D56"/>
<path d="M445.574 135.904C453.598 135.904 460.102 129.402 460.102 121.383C460.102 113.363 453.598 106.862 445.574 106.862C437.55 106.862 431.045 113.363 431.045 121.383C431.045 129.402 437.55 135.904 445.574 135.904Z" fill="#6C63FF"/>
<path d="M446.974 165.121H443.999L445.355 119.196L446.974 165.121Z" fill="#3F3D56"/>
<path d="M445.617 127.899L448.812 123.482L445.574 128.993L445.224 128.381L445.617 127.899Z" fill="#3F3D56"/>
<path d="M445.268 132.361L442.073 127.944L445.311 133.454L445.661 132.842L445.268 132.361Z" fill="#3F3D56"/>
<path d="M353.677 135.904C361.701 135.904 368.206 129.402 368.206 121.383C368.206 113.363 361.701 106.862 353.677 106.862C345.653 106.862 339.149 113.363 339.149 121.383C339.149 129.402 345.653 135.904 353.677 135.904Z" fill="#6C63FF"/>
<path d="M355.077 165.121H352.102L353.459 119.196L355.077 165.121Z" fill="#3F3D56"/>
<path d="M353.721 127.899L356.915 123.482L353.677 128.993L353.327 128.381L353.721 127.899Z" fill="#3F3D56"/>
<path d="M353.371 132.361L350.176 127.944L353.415 133.454L353.765 132.842L353.371 132.361Z" fill="#3F3D56"/>
<path d="M525.562 316H51.4365C45.463 316 39.5479 314.824 34.029 312.539C28.5101 310.255 23.4956 306.906 19.2716 302.684C15.0477 298.462 11.697 293.45 9.41106 287.934C7.12507 282.418 5.94849 276.506 5.94849 270.535C5.94849 264.565 7.12507 258.653 9.41106 253.137C11.697 247.621 15.0477 242.609 19.2716 238.387C23.4956 234.165 28.5101 230.816 34.029 228.531C39.5479 226.246 45.463 225.07 51.4365 225.07H524.512C529.152 225.07 533.602 223.228 536.883 219.949C540.164 216.669 542.007 212.222 542.007 207.584C542.007 202.946 540.164 198.498 536.883 195.219C533.602 191.94 529.152 190.097 524.512 190.097H35.6907V162.119H524.512C536.576 162.119 548.146 166.909 556.677 175.435C565.208 183.962 570 195.526 570 207.584C570 219.642 565.208 231.206 556.677 239.732C548.146 248.259 536.576 253.049 524.512 253.049H51.4365C46.7965 253.049 42.3464 254.891 39.0654 258.17C35.7844 261.45 33.9411 265.898 33.9411 270.535C33.9411 275.173 35.7844 279.621 39.0654 282.9C42.3464 286.179 46.7965 288.022 51.4365 288.022H525.562V316Z" fill="#E6E6E6"/>
<path d="M74.8803 175.409H53.186V176.808H74.8803V175.409Z" fill="white"/>
<path d="M136.464 175.409H114.77V176.808H136.464V175.409Z" fill="white"/>
<path d="M198.048 175.409H176.354V176.808H198.048V175.409Z" fill="white"/>
<path d="M259.632 175.409H237.938V176.808H259.632V175.409Z" fill="white"/>
<path d="M321.216 175.409H299.521V176.808H321.216V175.409Z" fill="white"/>
<path d="M382.799 175.409H361.105V176.808H382.799V175.409Z" fill="white"/>
<path d="M444.383 175.409H422.689V176.808H444.383V175.409Z" fill="white"/>
<path d="M505.967 175.409H484.272V176.808H505.967V175.409Z" fill="white"/>
<path d="M74.8803 238.36H53.186V239.759H74.8803V238.36Z" fill="white"/>
<path d="M136.464 238.36H114.77V239.759H136.464V238.36Z" fill="white"/>
<path d="M198.048 238.36H176.354V239.759H198.048V238.36Z" fill="white"/>
<path d="M259.632 238.36H237.938V239.759H259.632V238.36Z" fill="white"/>
<path d="M321.216 238.36H299.521V239.759H321.216V238.36Z" fill="white"/>
<path d="M382.799 238.36H361.105V239.759H382.799V238.36Z" fill="white"/>
<path d="M444.383 238.36H422.689V239.759H444.383V238.36Z" fill="white"/>
<path d="M505.967 238.36H484.272V239.759H505.967V238.36Z" fill="white"/>
<path d="M74.8803 301.311H53.186V302.71H74.8803V301.311Z" fill="white"/>
<path d="M136.464 301.311H114.77V302.71H136.464V301.311Z" fill="white"/>
<path d="M198.048 301.311H176.354V302.71H198.048V301.311Z" fill="white"/>
<path d="M259.632 301.311H237.938V302.71H259.632V301.311Z" fill="white"/>
<path d="M321.216 301.311H299.521V302.71H321.216V301.311Z" fill="white"/>
<path d="M382.799 301.311H361.105V302.71H382.799V301.311Z" fill="white"/>
<path d="M444.383 301.311H422.689V302.71H444.383V301.311Z" fill="white"/>
<path d="M505.967 301.311H484.272V302.71H505.967V301.311Z" fill="white"/>
<path d="M380.622 55.5178C382.901 55.5157 385.143 56.0947 387.136 57.2002H374.125C376.111 56.095 378.348 55.5159 380.622 55.5178Z" fill="#E6E6E6"/>
<path d="M355.374 53.8354C359.181 53.831 362.895 55.0065 366.006 57.2001H344.755C347.862 55.0091 351.571 53.8337 355.374 53.8354Z" fill="#E6E6E6"/>
<path d="M212.354 32.5385C212.816 24.3782 216.163 16.647 221.797 10.7233C227.431 4.79967 234.988 1.06861 243.118 0.195343C251.249 -0.677925 259.426 1.36337 266.191 5.95529C272.956 10.5472 277.869 17.3913 280.055 25.2672C280.473 25.2522 280.891 25.2354 281.312 25.2354C288.767 25.2368 296.021 27.6506 301.989 32.1158C307.957 36.581 312.318 42.8575 314.42 50.0063C319.36 47.8368 324.88 47.3662 330.116 48.668C335.352 49.9697 340.008 52.9705 343.356 57.2002H235.721C232.581 57.209 229.471 56.5845 226.579 55.364C223.686 54.1435 221.069 52.3521 218.885 50.097C216.701 47.8419 214.995 45.1696 213.869 42.2399C212.742 39.3103 212.219 36.1836 212.33 33.0471C212.337 32.8778 212.345 32.7083 212.354 32.5385Z" fill="#E6E6E6"/>
<path d="M388.476 80.6983C386.197 80.6962 383.955 81.2752 381.962 82.3807H394.973C392.986 81.2756 390.75 80.6965 388.476 80.6983Z" fill="#E6E6E6"/>
<path d="M413.724 79.016C409.917 79.0115 406.202 80.1871 403.091 82.3807H424.343C421.236 80.1897 417.526 79.0142 413.724 79.016Z" fill="#E6E6E6"/>
<path d="M556.743 57.719C556.281 49.5587 552.935 41.8275 547.301 35.9039C541.666 29.9802 534.11 26.2492 525.979 25.3759C517.849 24.5026 509.672 26.5439 502.907 31.1358C496.142 35.7277 491.229 42.5718 489.043 50.4477C488.625 50.4328 488.207 50.416 487.785 50.416C480.331 50.4173 473.077 52.8312 467.109 57.2964C461.141 61.7615 456.78 68.038 454.678 75.1868C449.738 73.0174 444.218 72.5467 438.982 73.8485C433.746 75.1503 429.089 78.151 425.742 82.3807H533.377C536.517 82.3896 539.626 81.7651 542.519 80.5445C545.412 79.324 548.029 77.5326 550.213 75.2775C552.397 73.0224 554.103 70.3501 555.229 67.4205C556.355 64.4908 556.879 61.3642 556.768 58.2276C556.761 58.0583 556.753 57.8888 556.743 57.719Z" fill="#E6E6E6"/>
<path d="M484.984 296.448L497.494 296.455L497.495 294.47L484.985 294.464L484.984 296.448Z" fill="#3F3D56"/>
<path d="M394.538 294.911L397.119 295.508L495.211 295.561L496.093 293.507C497.631 289.983 498.159 286.102 497.618 282.296C497.196 279.459 496.137 276.64 493.732 275.416L489.379 246.437L435.11 246.34L414.114 263.267C414.114 263.267 404.209 263.089 398.828 269.784C396.887 272.274 395.741 275.29 395.539 278.439L395.327 281.922L394.538 294.911Z" fill="#6C63FF"/>
<path d="M416.083 306.533C422.772 306.533 428.195 301.113 428.195 294.427C428.195 287.741 422.772 282.32 416.083 282.32C409.393 282.32 403.97 287.741 403.97 294.427C403.97 301.113 409.393 306.533 416.083 306.533Z" fill="#3F3D56"/>
<path d="M416.083 300.799C419.603 300.799 422.458 297.946 422.458 294.427C422.458 290.908 419.603 288.055 416.083 288.055C412.562 288.055 409.708 290.908 409.708 294.427C409.708 297.946 412.562 300.799 416.083 300.799Z" fill="#CCCCCC"/>
<path d="M475.851 306.565C482.541 306.565 487.964 301.145 487.964 294.459C487.964 287.773 482.541 282.352 475.851 282.352C469.162 282.352 463.739 287.773 463.739 294.459C463.739 301.145 469.162 306.565 475.851 306.565Z" fill="#3F3D56"/>
<path d="M475.851 300.831C479.372 300.831 482.226 297.978 482.226 294.459C482.226 290.94 479.372 288.087 475.851 288.087C472.33 288.087 469.476 290.94 469.476 294.459C469.476 297.978 472.33 300.831 475.851 300.831Z" fill="#CCCCCC"/>
<path d="M422.456 261.288L451.757 261.301H455.334L461.372 261.305V260.865L461.377 255.557L461.381 249.597H457.363L453.787 249.593L447.451 249.589H443.874L436.56 249.584L422.456 261.288Z" fill="white"/>
<path d="M466.14 261.31L481.626 261.318L481.63 258.281V252.973L481.634 249.61H479.366L475.79 249.606L466.145 249.602L466.14 261.31Z" fill="white"/>
<path d="M459.381 273.809L461.367 273.811L461.369 270.04L459.383 270.039L459.381 273.809Z" fill="#3F3D56"/>
<path d="M430.394 266.649L430.395 264.665L426.623 264.663L426.621 266.647L430.394 266.649Z" fill="#3F3D56"/>
<path d="M429.005 265.537L428.786 265.537C428.241 265.537 427.702 265.429 427.198 265.22C426.695 265.012 426.238 264.706 425.853 264.32C425.467 263.935 425.162 263.478 424.954 262.974C424.745 262.471 424.638 261.931 424.639 261.387C424.639 260.842 424.747 260.303 424.955 259.8C425.164 259.296 425.47 258.839 425.856 258.454C426.241 258.069 426.699 257.764 427.203 257.556C427.706 257.348 428.246 257.241 428.791 257.241L429.009 257.241L429.005 265.537Z" fill="#3F3D56"/>
<path d="M395.327 281.922C396.829 282.086 398.34 281.714 399.594 280.873C400.849 280.032 401.766 278.775 402.184 277.325C402.603 275.874 402.496 274.322 401.882 272.943C401.268 271.563 400.187 270.445 398.828 269.784C396.887 272.274 395.741 275.29 395.539 278.439L395.327 281.922Z" fill="#3F3D56"/>
<path d="M453.787 249.593L461.372 260.865L461.377 255.557L457.363 249.597L453.787 249.593Z" fill="#F2F2F2"/>
<path d="M475.79 249.606L481.629 258.281V252.973L479.366 249.61L475.79 249.606Z" fill="#F2F2F2"/>
<path d="M443.874 249.589L451.757 261.301H455.334L447.451 249.589H443.874Z" fill="#F2F2F2"/>
<path d="M32.1915 199.89C49.9704 199.89 64.3831 185.485 64.3831 167.715C64.3831 149.945 49.9704 135.54 32.1915 135.54C14.4126 135.54 0 149.945 0 167.715C0 185.485 14.4126 199.89 32.1915 199.89Z" fill="#3F3D56"/>
<path d="M32.3255 177.401L16.2157 161.3C15.6917 160.775 15.3975 160.063 15.3979 159.322C15.3984 158.58 15.6933 157.869 16.2179 157.345C16.7425 156.821 17.4539 156.526 18.1958 156.525C18.9378 156.525 19.6495 156.819 20.1747 157.343L32.0576 169.22L69.9765 126.001C70.4663 125.444 71.1571 125.105 71.8973 125.057C72.6374 125.009 73.3664 125.256 73.924 125.745C74.4817 126.234 74.8225 126.924 74.8715 127.663C74.9206 128.403 74.6739 129.132 74.1856 129.69L32.3255 177.401Z" fill="#6C63FF"/>
</g>
<defs>
<clipPath id="clip0_179_291">
<rect width="570" height="316" fill="white"/>
</clipPath>
</defs>
</svg>
