<svg width="51" height="38" viewBox="0 0 51 38" fill="none" xmlns="http://www.w3.org/2000/svg">
<path d="M12.25 15C11.6925 15 11.1575 15.0849 10.625 15.1624C10.7975 14.5824 10.975 13.9925 11.26 13.4625C11.545 12.6925 11.99 12.025 12.4325 11.3525C12.8025 10.625 13.455 10.1325 13.935 9.50995C14.4375 8.90495 15.1225 8.50245 15.665 7.99995C16.1975 7.47495 16.895 7.21245 17.45 6.84245C18.03 6.50995 18.535 6.14245 19.075 5.96745L20.4225 5.41245L21.6075 4.91995L20.395 0.0749512L18.9025 0.43495C18.425 0.55495 17.8425 0.69495 17.18 0.86245C16.5025 0.98745 15.78 1.32995 14.975 1.64245C14.18 1.99745 13.26 2.23745 12.405 2.80745C11.545 3.35245 10.5525 3.80745 9.6775 4.53745C8.83 5.28995 7.8075 5.94245 7.0525 6.89995C6.2275 7.79495 5.4125 8.73495 4.78 9.80495C4.0475 10.825 3.55 11.945 3.025 13.0525C2.55 14.16 2.1675 15.2925 1.855 16.3925C1.2625 18.5975 0.997497 20.6925 0.894997 22.485C0.809997 24.28 0.859997 25.7725 0.964997 26.8525C1.0025 27.3625 1.0725 27.8575 1.1225 28.2L1.185 28.6199L1.25 28.605C1.69465 30.682 2.71826 32.5908 4.20241 34.1104C5.68655 35.63 7.5706 36.6984 9.63659 37.192C11.7026 37.6856 13.8661 37.5842 15.8769 36.8995C17.8877 36.2149 19.6635 34.9749 20.999 33.3232C22.3345 31.6714 23.1751 29.6753 23.4235 27.5657C23.672 25.4561 23.3181 23.3193 22.4028 21.4025C21.4876 19.4857 20.0483 17.8671 18.2516 16.7341C16.4549 15.601 14.3741 14.9998 12.25 15ZM39.75 15C39.1925 15 38.6575 15.0849 38.125 15.1624C38.2975 14.5824 38.475 13.9925 38.76 13.4625C39.045 12.6925 39.49 12.025 39.9325 11.3525C40.3025 10.625 40.955 10.1325 41.435 9.50995C41.9375 8.90495 42.6225 8.50245 43.165 7.99995C43.6975 7.47495 44.395 7.21245 44.95 6.84245C45.53 6.50995 46.035 6.14245 46.575 5.96745L47.9225 5.41245L49.1075 4.91995L47.895 0.0749512L46.4025 0.43495C45.925 0.55495 45.3425 0.69495 44.68 0.86245C44.0025 0.98745 43.28 1.32995 42.475 1.64245C41.6825 1.99995 40.76 2.23745 39.905 2.80995C39.045 3.35495 38.0525 3.80995 37.1775 4.53995C36.33 5.29245 35.3075 5.94495 34.5525 6.89995C33.7275 7.79495 32.9125 8.73495 32.28 9.80495C31.5475 10.825 31.05 11.945 30.525 13.0525C30.05 14.16 29.6675 15.2925 29.355 16.3925C28.7625 18.5975 28.4975 20.6925 28.395 22.485C28.31 24.28 28.36 25.7725 28.465 26.8525C28.5025 27.3625 28.5725 27.8575 28.6225 28.2L28.685 28.6199L28.75 28.605C29.1946 30.682 30.2183 32.5908 31.7024 34.1104C33.1866 35.63 35.0706 36.6984 37.1366 37.192C39.2026 37.6856 41.3661 37.5842 43.3769 36.8995C45.3876 36.2149 47.1635 34.9749 48.499 33.3232C49.8345 31.6714 50.6751 29.6753 50.9235 27.5657C51.172 25.4561 50.8181 23.3193 49.9028 21.4025C48.9876 19.4857 47.5483 17.8671 45.7516 16.7341C43.9549 15.601 41.8741 14.9998 39.75 15Z" fill="#4A69BB"/>
</svg>
