<svg width="50" height="50" viewBox="0 0 50 50" fill="none" xmlns="http://www.w3.org/2000/svg">
<rect width="50" height="50" rx="4" fill="#F9BC8F"/>
<path d="M21.125 37.1667H29.875V40.0834H21.125V37.1667ZM32.6545 27.9967C34.1566 26.2379 35.7083 24.4194 35.7083 21.125C35.7083 15.4973 31.1277 10.9167 25.5 10.9167C19.8723 10.9167 15.2916 15.4973 15.2916 21.125C15.2916 24.4573 16.8477 26.27 18.3556 28.0229C18.8777 28.6325 19.4187 29.264 19.9364 29.9902C20.1464 30.2906 20.4906 31.4427 20.7983 32.7917H19.6666V35.7084H31.3333V32.7917H30.2045C30.5152 31.4398 30.8608 30.2848 31.0693 29.9844C31.5827 29.2509 32.1281 28.6136 32.6545 27.9967ZM28.682 28.3073C28.0491 29.2071 27.5212 31.3334 27.215 32.7917H23.7864C23.4816 31.3304 22.9523 29.1998 22.312 28.3C21.7648 27.548 21.1828 26.8219 20.5679 26.1242C19.1475 24.4704 18.2083 23.3767 18.2083 21.125C18.2083 17.1044 21.4793 13.8334 25.5 13.8334C29.5206 13.8334 32.7916 17.1044 32.7916 21.125C32.7916 23.3431 31.8539 24.4413 30.4364 26.1023C29.8925 26.7411 29.2756 27.4629 28.682 28.3073Z" fill="white"/>
</svg>
